<svg height="54" viewBox="0 0 47 54" width="47" xmlns="http://www.w3.org/2000/svg"><path d="m198.048 73.06c-.408002.5760029-.821998.9959987-1.242 1.26s-.917997.396-1.494.396c-.552003 0-1.103997-.1799982-1.656-.54s-1.169997-.7559978-1.854-1.188-1.469996-.8279982-2.358-1.188-1.931994-.54-3.132-.54c-1.104006 0-2.069996.1559984-2.898.468s-1.517997.7439972-2.07 1.296-.965999 1.1999963-1.242 1.944-.414 1.5599956-.414 2.448c0 .9600048.269997 1.7639968.81 2.412s1.259995 1.2179975 2.16 1.71 1.913994.941998 3.042 1.35 2.285994.8519976 3.474 1.332 2.351994 1.0319969 3.492 1.656 2.159996 1.4039953 3.06 2.34 1.619997 2.0639934 2.16 3.384.81 2.9039908.81 4.752c0 2.6400132-.455995 5.123988-1.368 7.452s-2.219991 4.361991-3.924 6.102-3.773988 3.119995-6.21 4.14-5.177985 1.53-8.226 1.53c-1.512008 0-3.029992-.167998-4.554-.504s-2.987993-.809997-4.392-1.422-2.705994-1.337996-3.906-2.178-2.219996-1.775995-3.06-2.808l4.176-5.472c.312002-.408002.719997-.743999 1.224-1.008s1.007997-.396 1.512-.396c.672003 0 1.325997.233998 1.962.702s1.337996.983997 2.106 1.548 1.661995 1.079998 2.682 1.548 2.273993.702 3.762.702c2.184011 0 3.869994-.593994 5.058-1.782s1.782-2.945988 1.782-5.274c0-1.0800054-.269997-1.9679965-.81-2.664s-1.247996-1.2839976-2.124-1.764-1.877994-.9059981-3.006-1.278-2.279994-.7739978-3.456-1.206-2.327994-.9419971-3.456-1.53-2.129996-1.3559953-3.006-2.304-1.583997-2.1119931-2.124-3.492-.81-3.0779899-.81-5.094c0-2.3280116.437996-4.5659893 1.314-6.714s2.129992-4.0499917 3.762-5.706 3.611988-2.9759951 5.94-3.96 4.943985-1.476 7.848-1.476c1.488007 0 2.933993.1559984 4.338.468s2.717994.7439972 3.942 1.296 2.339995 1.2059962 3.348 1.962 1.859997 1.5779956 2.556 2.466zm11.468 15.714-1.26 10.332c-.132001 1.092005-.329999 2.180995-.594 3.267s-.569998 2.198994-.918 3.339h-3.636c-.024-.456002-.045-.905998-.063-1.35s-.027-.887998-.027-1.332c0-.660003.018-1.313997.054-1.962s.096-1.3019967.18-1.962l1.26-10.332zm-8.28 23.4c0-.432002.080999-.833998.243-1.206s.383999-.695999.666-.972.614998-.494999.999-.657.803998-.243 1.26-.243c.444002 0 .857998.080999 1.242.243s.719999.380999 1.008.657.512999.599998.675.972.243.773998.243 1.206-.080999.836998-.243 1.215-.386999.704999-.675.981-.623998.491999-1.008.648-.797998.234-1.242.234c-.456002 0-.875998-.077999-1.26-.234s-.716999-.371999-.999-.648-.503999-.602998-.666-.981-.243-.782998-.243-1.215z" fill="#fff" fill-rule="evenodd" transform="translate(-163 -62)"/></svg>